<mxfile host="app.diagrams.net" modified="2023-05-22T08:56:52.428Z" agent="Mozilla/5.0 (Windows NT 10.0; Win64; x64) AppleWebKit/537.36 (KHTML, like Gecko) Chrome/113.0.0.0 Safari/537.36 Edg/113.0.1774.50" version="21.3.2" etag="_c0CbBWChrxnah4vplnV" type="github">
  <diagram name="Page-1" id="j9kV8hr9nyemgIs7Q6aY">
    <mxGraphModel>
      <root>
        <mxCell id="0" />
        <mxCell id="1" parent="0" />
      </root>
    </mxGraphModel>
  </diagram>
</mxfile>
